<svg width="337" height="226" viewBox="0 0 337 226" fill="none" xmlns="http://www.w3.org/2000/svg">
<path fill-rule="evenodd" clip-rule="evenodd" d="M291.915 47.873C271.939 21.4335 234.313 16.1933 207.873 36.1687C181.433 56.1442 176.193 93.7709 196.169 120.21C216.144 146.65 253.771 151.89 280.21 131.915C306.65 111.939 311.89 74.3125 291.915 47.873ZM277.704 58.8527C263.721 40.345 237.383 36.6769 218.875 50.6597C200.367 64.6425 196.699 90.9812 210.682 109.489C224.665 127.997 251.003 131.665 269.511 117.682C288.019 103.699 291.687 77.3604 277.704 58.8527Z" fill="#2D99EF"/>
<path d="M325.111 164.111C318.667 170.554 308.22 170.554 301.776 164.111L264 126.335L287.334 103L325.111 140.776C331.554 147.22 331.554 157.667 325.111 164.111Z" fill="#2D99EF"/>
<path d="M243.2 114.88C238.827 114.88 235.013 114.133 231.76 112.64C228.507 111.093 225.547 108.773 222.88 105.68L230.8 97.6C232.56 99.7333 234.507 101.413 236.64 102.64C238.773 103.813 241.227 104.4 244 104.4C246.613 104.4 248.64 103.92 250.08 102.96C251.52 101.947 252.24 100.533 252.24 98.72C252.24 97.1733 251.76 95.92 250.8 94.96C249.893 94 248.667 93.1733 247.12 92.48C245.573 91.7867 243.867 91.12 242 90.48C240.133 89.84 238.267 89.12 236.4 88.32C234.587 87.4667 232.907 86.4267 231.36 85.2C229.813 83.92 228.56 82.3467 227.6 80.48C226.64 78.56 226.16 76.16 226.16 73.28C226.16 69.8133 226.987 66.8267 228.64 64.32C230.347 61.8133 232.667 59.92 235.6 58.64C238.533 57.3067 241.893 56.64 245.68 56.64C249.36 56.64 252.8 57.3333 256 58.72C259.2 60.1067 261.813 62 263.84 64.4L255.92 72.48C254.267 70.72 252.587 69.3867 250.88 68.48C249.227 67.52 247.413 67.04 245.44 67.04C243.147 67.04 241.36 67.4667 240.08 68.32C238.8 69.1733 238.16 70.4267 238.16 72.08C238.16 73.52 238.64 74.6933 239.6 75.6C240.56 76.4533 241.813 77.2 243.36 77.84C244.96 78.48 246.667 79.12 248.48 79.76C250.347 80.4 252.213 81.1467 254.08 82C255.947 82.8533 257.653 83.9467 259.2 85.28C260.8 86.56 262.08 88.2133 263.04 90.24C264 92.2133 264.48 94.6667 264.48 97.6C264.48 102.987 262.587 107.227 258.8 110.32C255.067 113.36 249.867 114.88 243.2 114.88ZM240.56 108.64H249.36V122.08H240.56V108.64ZM249.36 62.4H240.56V49.44H249.36V62.4Z" fill="#FACD4B"/>
<path d="M18.28 216V188.24H20.92L32.68 207.56H30.88L42.64 188.24H45.28V216H41.52V194.84L42.4 195.08L33.12 210.32H30.48L21.2 195.08L22.04 194.84V216H18.28ZM63.0747 216.4C61.208 216.4 59.528 215.96 58.0347 215.08C56.5414 214.2 55.3547 213.013 54.4747 211.52C53.5947 210 53.1547 208.307 53.1547 206.44C53.1547 204.6 53.5947 202.947 54.4747 201.48C55.3547 199.987 56.5414 198.8 58.0347 197.92C59.528 197.04 61.208 196.6 63.0747 196.6C64.9147 196.6 66.5814 197.04 68.0747 197.92C69.5947 198.773 70.7947 199.947 71.6747 201.44C72.5547 202.933 72.9947 204.6 72.9947 206.44C72.9947 208.307 72.5547 210 71.6747 211.52C70.7947 213.013 69.5947 214.2 68.0747 215.08C66.5814 215.96 64.9147 216.4 63.0747 216.4ZM63.0747 212.92C64.2747 212.92 65.3414 212.64 66.2747 212.08C67.208 211.52 67.9414 210.76 68.4747 209.8C69.008 208.813 69.2747 207.693 69.2747 206.44C69.2747 205.213 68.9947 204.12 68.4347 203.16C67.9014 202.2 67.168 201.453 66.2347 200.92C65.328 200.36 64.2747 200.08 63.0747 200.08C61.8747 200.08 60.808 200.36 59.8747 200.92C58.9414 201.453 58.208 202.2 57.6747 203.16C57.1414 204.12 56.8747 205.213 56.8747 206.44C56.8747 207.693 57.1414 208.813 57.6747 209.8C58.208 210.76 58.9414 211.52 59.8747 212.08C60.808 212.64 61.8747 212.92 63.0747 212.92ZM93.6909 216V204.92C93.6909 203.48 93.2376 202.293 92.3309 201.36C91.4243 200.427 90.2509 199.96 88.8109 199.96C87.8509 199.96 86.9976 200.173 86.2509 200.6C85.5043 201.027 84.9176 201.613 84.4909 202.36C84.0643 203.107 83.8509 203.96 83.8509 204.92L82.3709 204.08C82.3709 202.64 82.6909 201.36 83.3309 200.24C83.9709 199.12 84.8643 198.24 86.0109 197.6C87.1576 196.933 88.4509 196.6 89.8909 196.6C91.3309 196.6 92.5976 196.96 93.6909 197.68C94.8109 198.4 95.6909 199.347 96.3309 200.52C96.9709 201.667 97.2909 202.893 97.2909 204.2V216H93.6909ZM80.2509 216V197H83.8509V216H80.2509ZM114.165 216.4C112.272 216.4 110.565 215.973 109.045 215.12C107.525 214.24 106.325 213.053 105.445 211.56C104.565 210.067 104.125 208.373 104.125 206.48C104.125 204.613 104.552 202.933 105.405 201.44C106.285 199.947 107.458 198.773 108.925 197.92C110.418 197.04 112.085 196.6 113.925 196.6C115.685 196.6 117.232 197 118.565 197.8C119.925 198.6 120.978 199.707 121.725 201.12C122.498 202.533 122.885 204.133 122.885 205.92C122.885 206.187 122.872 206.48 122.845 206.8C122.818 207.093 122.765 207.44 122.685 207.84H106.645V204.84H120.765L119.445 206C119.445 204.72 119.218 203.64 118.765 202.76C118.312 201.853 117.672 201.16 116.845 200.68C116.018 200.173 115.018 199.92 113.845 199.92C112.618 199.92 111.538 200.187 110.605 200.72C109.672 201.253 108.952 202 108.445 202.96C107.938 203.92 107.685 205.053 107.685 206.36C107.685 207.693 107.952 208.867 108.485 209.88C109.018 210.867 109.778 211.64 110.765 212.2C111.752 212.733 112.885 213 114.165 213C115.232 213 116.205 212.813 117.085 212.44C117.992 212.067 118.765 211.507 119.405 210.76L121.725 213.12C120.818 214.187 119.698 215 118.365 215.56C117.058 216.12 115.658 216.4 114.165 216.4ZM135.938 216.16L127.698 197H131.698L137.818 212H136.538L142.978 197H146.978L138.098 216.16H135.938ZM130.498 223.96L136.098 212.48L138.098 216.16L134.498 223.96H130.498ZM165.605 216V188.24H168.245L180.005 207.56H178.205L189.965 188.24H192.605V216H188.845V194.84L189.725 195.08L180.445 210.32H177.805L168.525 195.08L169.365 194.84V216H165.605ZM201.76 216V197H205.36V216H201.76ZM203.56 193.2C202.893 193.2 202.346 192.987 201.92 192.56C201.493 192.107 201.28 191.547 201.28 190.88C201.28 190.24 201.493 189.707 201.92 189.28C202.346 188.827 202.893 188.6 203.56 188.6C204.226 188.6 204.773 188.827 205.2 189.28C205.626 189.707 205.84 190.24 205.84 190.88C205.84 191.547 205.626 192.107 205.2 192.56C204.773 192.987 204.226 193.2 203.56 193.2ZM227.305 216V204.92C227.305 203.48 226.852 202.293 225.945 201.36C225.038 200.427 223.865 199.96 222.425 199.96C221.465 199.96 220.612 200.173 219.865 200.6C219.118 201.027 218.532 201.613 218.105 202.36C217.678 203.107 217.465 203.96 217.465 204.92L215.985 204.08C215.985 202.64 216.305 201.36 216.945 200.24C217.585 199.12 218.478 198.24 219.625 197.6C220.772 196.933 222.065 196.6 223.505 196.6C224.945 196.6 226.212 196.96 227.305 197.68C228.425 198.4 229.305 199.347 229.945 200.52C230.585 201.667 230.905 202.893 230.905 204.2V216H227.305ZM213.865 216V197H217.465V216H213.865ZM247.019 216.4C245.259 216.4 243.686 215.973 242.299 215.12C240.912 214.24 239.806 213.053 238.979 211.56C238.179 210.067 237.779 208.387 237.779 206.52C237.779 204.653 238.179 202.973 238.979 201.48C239.806 199.987 240.912 198.8 242.299 197.92C243.686 197.04 245.259 196.6 247.019 196.6C248.432 196.6 249.712 196.907 250.859 197.52C252.006 198.107 252.926 198.933 253.619 200C254.339 201.04 254.739 202.253 254.819 203.64V209.36C254.739 210.72 254.352 211.933 253.659 213C252.966 214.067 252.046 214.907 250.899 215.52C249.752 216.107 248.459 216.4 247.019 216.4ZM247.619 213C248.819 213 249.859 212.72 250.739 212.16C251.646 211.6 252.352 210.84 252.859 209.88C253.366 208.893 253.619 207.773 253.619 206.52C253.619 205.213 253.352 204.08 252.819 203.12C252.312 202.16 251.606 201.4 250.699 200.84C249.819 200.28 248.779 200 247.579 200C246.379 200 245.326 200.28 244.419 200.84C243.512 201.4 242.792 202.173 242.259 203.16C241.752 204.12 241.499 205.227 241.499 206.48C241.499 207.76 241.752 208.893 242.259 209.88C242.792 210.84 243.512 211.6 244.419 212.16C245.352 212.72 246.419 213 247.619 213ZM257.019 216H253.379V210.88L254.059 206.24L253.379 201.64V187.44H257.019V216ZM274.26 216.4C272.367 216.4 270.66 215.973 269.14 215.12C267.62 214.24 266.42 213.053 265.54 211.56C264.66 210.067 264.22 208.373 264.22 206.48C264.22 204.613 264.647 202.933 265.5 201.44C266.38 199.947 267.554 198.773 269.02 197.92C270.514 197.04 272.18 196.6 274.02 196.6C275.78 196.6 277.327 197 278.66 197.8C280.02 198.6 281.074 199.707 281.82 201.12C282.594 202.533 282.98 204.133 282.98 205.92C282.98 206.187 282.967 206.48 282.94 206.8C282.914 207.093 282.86 207.44 282.78 207.84H266.74V204.84H280.86L279.54 206C279.54 204.72 279.314 203.64 278.86 202.76C278.407 201.853 277.767 201.16 276.94 200.68C276.114 200.173 275.114 199.92 273.94 199.92C272.714 199.92 271.634 200.187 270.7 200.72C269.767 201.253 269.047 202 268.54 202.96C268.034 203.92 267.78 205.053 267.78 206.36C267.78 207.693 268.047 208.867 268.58 209.88C269.114 210.867 269.874 211.64 270.86 212.2C271.847 212.733 272.98 213 274.26 213C275.327 213 276.3 212.813 277.18 212.44C278.087 212.067 278.86 211.507 279.5 210.76L281.82 213.12C280.914 214.187 279.794 215 278.46 215.56C277.154 216.12 275.754 216.4 274.26 216.4ZM290.106 216V197H293.706V216H290.106ZM293.706 205.16L292.346 204.56C292.346 202.133 292.906 200.2 294.026 198.76C295.146 197.32 296.759 196.6 298.866 196.6C299.826 196.6 300.692 196.773 301.466 197.12C302.239 197.44 302.959 197.987 303.626 198.76L301.266 201.2C300.866 200.773 300.426 200.467 299.946 200.28C299.466 200.093 298.906 200 298.266 200C296.932 200 295.839 200.427 294.986 201.28C294.132 202.133 293.706 203.427 293.706 205.16Z" fill="#FACD4B"/>
<path d="M7.84 142V41.2H23.38L65.24 91.04L107.1 41.2H122.64V142H111.3V54.08L65.24 108.82L19.18 54.08V142H7.84Z" fill="#2D99EF"/>
<path d="M45.84 142V41.2H61.38L103.24 91.04L145.1 41.2H160.64V142H149.3V54.08L103.24 108.82L57.18 54.08V142H45.84Z" fill="#FACD4B"/>
<path d="M72 83L84.5 68L96 72L76 96L72 83Z" fill="#2D99EF" stroke="#2D99EF" stroke-width="0.1"/>
</svg>
